<?xml version="1.0" standalone="no"?>
<!DOCTYPE svg PUBLIC "-//W3C//DTD SVG 20010904//EN"
 "http://www.w3.org/TR/2001/REC-SVG-20010904/DTD/svg10.dtd">
<svg version="1.0" xmlns="http://www.w3.org/2000/svg"
 width="1080.000000pt" height="1080.000000pt" viewBox="0 0 1080.000000 1080.000000"
 preserveAspectRatio="xMidYMid meet">
<metadata>
Created by potrace 1.14, written by Peter Selinger 2001-2017
</metadata>
<g transform="translate(0.000000,1080.000000) scale(0.100000,-0.100000)"
fill="#000000" stroke="none">
<path d="M0 5400 l0 -5400 5400 0 5400 0 0 5400 0 5400 -5400 0 -5400 0 0
-5400z m7548 953 l2 -223 74 0 c70 0 74 -1 78 -24 3 -13 0 -32 -6 -43 -6 -10
-13 -46 -16 -80 l-5 -63 60 0 c33 0 83 3 111 6 l52 6 4 143 c3 95 8 148 17
158 7 9 15 41 18 71 3 31 11 60 17 65 6 4 36 14 66 21 30 7 61 17 68 23 7 6
12 35 12 79 l0 69 33 -3 32 -3 6 -75 5 -75 2 73 2 72 35 0 35 0 0 -70 0 -69
63 -19 62 -18 5 -59 c3 -32 10 -60 15 -62 30 -10 39 -26 43 -76 l4 -54 -41
-16 c-22 -9 -41 -21 -41 -27 0 -15 15 -12 80 15 71 30 169 32 270 7 l65 -17 3
-87 3 -88 89 0 90 0 0 54 c0 47 3 54 23 60 12 3 113 9 224 12 l201 7 25 -26
c22 -24 34 -28 123 -35 71 -5 98 -11 96 -20 -3 -15 45 -35 65 -28 7 3 13 12
13 20 0 17 56 66 76 66 8 0 14 -10 14 -25 l0 -24 26 24 c57 53 54 102 54 -880
l0 -905 -4460 0 -4460 0 0 880 c0 484 4 880 8 880 5 0 21 -13 36 -29 l29 -30
84 46 c73 40 88 44 109 34 18 -8 29 -8 43 1 26 16 85 -21 86 -54 0 -19 5 -23
34 -23 29 0 35 4 45 35 l11 35 105 3 c58 1 136 -1 175 -5 59 -7 70 -11 73 -28
11 -54 70 -61 141 -16 l46 29 225 2 c338 4 320 6 320 -30 l0 -30 156 0 156 0
61 34 c49 27 66 33 80 24 10 -5 30 -7 43 -4 16 4 61 -5 120 -24 68 -22 114
-30 164 -30 68 0 70 1 70 25 l0 25 218 0 c179 -1 221 -3 237 -16 19 -14 19
-16 3 -25 -22 -12 -23 -25 -2 -33 10 -4 45 11 92 40 65 41 78 46 101 37 16 -6
35 -6 47 -1 15 7 42 -2 114 -36 56 -28 107 -46 129 -46 36 0 220 16 646 55
143 13 332 29 420 35 194 14 170 13 227 11 43 -1 50 -4 70 -36 23 -35 24 -35
88 -33 62 3 65 4 68 30 10 85 363 119 512 50 29 -14 35 -23 38 -52 3 -35 4
-36 38 -32 20 3 46 15 60 28 23 24 28 24 156 22 l133 -3 3 -34 3 -34 72 6
c126 11 134 14 141 56 3 20 6 77 6 127 l0 91 136 32 135 33 -4 136 c-2 76 -7
150 -12 166 -5 20 -4 31 6 37 8 5 70 8 139 7 l125 -3 3 -222z"/>
<path d="M2767 5553 c-4 -3 -7 -204 -7 -445 l0 -439 195 3 c187 3 195 4 217
26 23 22 23 26 26 315 2 222 -1 298 -11 317 -18 35 -67 49 -179 49 l-98 1 0
90 0 90 -68 0 c-38 0 -72 -3 -75 -7z m201 -530 l2 -183 -30 0 -30 0 0 186 0
185 28 -3 27 -3 3 -182z m82 -4 l0 -180 -27 3 -28 3 -3 178 -2 177 30 0 30 0
0 -181z"/>
<path d="M5680 5471 l0 -89 -77 -6 c-43 -3 -85 -5 -93 -4 -40 4 -72 -4 -90
-22 -19 -19 -20 -33 -20 -328 0 -301 1 -309 21 -328 19 -17 41 -19 215 -22
l194 -3 -2 443 -3 443 -72 3 -73 3 0 -90z m-80 -446 l0 -185 -30 0 -30 0 0
185 0 185 30 0 30 0 0 -185z m80 -6 l0 -180 -27 3 -28 3 -3 178 -2 177 30 0
30 0 0 -181z"/>
<path d="M9140 5115 l0 -445 70 0 70 0 2 268 3 267 28 3 27 3 0 -270 c0 -171
4 -271 10 -271 6 0 11 99 12 263 l3 262 30 0 30 0 3 -262 2 -263 70 0 70 0 0
318 c0 235 -4 323 -13 342 -18 35 -67 49 -179 49 l-98 1 0 90 0 90 -70 0 -70
0 0 -445z"/>
<path d="M1327 5373 c-11 -10 -8 -629 2 -656 14 -37 59 -47 213 -47 144 0 188
10 202 45 3 9 6 163 6 341 l0 324 -70 0 -70 0 -2 -267 -3 -268 -27 -3 -28 -3
0 265 c0 163 -4 267 -10 271 -6 4 -11 -90 -12 -262 l-3 -268 -30 0 -30 0 -3
268 -2 267 -63 0 c-35 0 -67 -3 -70 -7z"/>
<path d="M1820 5043 c0 -222 4 -333 10 -323 13 21 13 647 0 655 -7 4 -10 -109
-10 -332z"/>
<path d="M1900 5025 l0 -355 70 0 70 0 2 268 3 267 30 0 30 0 3 -267 c1 -167
6 -268 12 -268 6 0 10 98 10 265 l0 265 30 0 30 0 0 -265 0 -265 70 0 70 0 2
268 3 267 28 3 27 3 0 -270 c0 -234 2 -271 15 -271 13 0 15 36 15 265 l0 265
30 0 30 0 0 -341 c0 -214 4 -347 10 -360 25 -46 49 -49 390 -49 l321 0 -3 83
-3 82 -287 3 -288 2 0 344 0 343 -25 26 c-27 27 -123 56 -134 41 -3 -5 -16
-17 -28 -27 -20 -17 -23 -17 -45 -3 -22 14 -26 14 -46 0 -20 -14 -24 -13 -49
5 -31 21 -113 39 -113 23 0 -5 -11 -14 -24 -20 -19 -9 -25 -8 -30 4 -5 13 -10
13 -42 -1 -46 -19 -44 -19 -44 5 0 18 -7 20 -70 20 l-70 0 0 -355z"/>
<path d="M3413 5373 c-20 -3 -41 -14 -53 -30 -19 -24 -20 -40 -20 -314 0 -194
4 -296 11 -313 17 -37 57 -46 211 -46 144 0 188 10 202 45 3 9 6 50 6 91 l0
74 -27 0 c-16 0 -45 3 -65 6 -34 6 -39 4 -48 -20 -12 -33 -60 -38 -60 -7 0 29
-18 35 -22 9 -2 -18 -9 -23 -33 -23 -29 0 -30 2 -30 45 l0 45 143 3 142 3 0
194 c0 215 0 216 -68 235 -35 9 -220 11 -289 3z m135 -220 l3 -53 -35 0 -36 0
0 48 c0 56 5 64 40 60 23 -3 25 -8 28 -55z m82 -3 c0 -49 -1 -50 -30 -50 -29
0 -30 1 -30 50 0 49 1 50 30 50 29 0 30 -1 30 -50z"/>
<path d="M3920 5025 l0 -355 70 0 69 0 3 143 3 142 28 3 27 3 0 -145 c0 -123
2 -146 15 -146 13 0 15 22 15 140 l0 140 30 0 30 0 0 -229 0 -230 26 -20 c26
-20 38 -21 375 -21 l349 0 0 85 0 85 -305 0 -305 0 0 180 c0 178 0 181 -24
205 -22 22 -23 25 -6 30 10 3 21 16 24 28 11 42 6 241 -7 267 -20 40 -66 49
-249 49 l-168 1 0 -355z m200 125 l0 -60 -30 0 c-30 0 -30 1 -30 53 0 60 4 67
37 67 22 0 23 -4 23 -60z m88 -2 c-3 -49 -5 -53 -30 -56 -28 -3 -28 -2 -28 52
0 56 0 56 31 56 l30 0 -3 -52z"/>
<path d="M4537 5373 c-4 -3 -7 -15 -7 -25 0 -13 -8 -18 -30 -18 l-30 0 0 -85
0 -85 30 0 30 0 0 -214 c0 -118 3 -222 6 -231 14 -36 57 -45 209 -45 152 0
195 9 209 45 3 9 6 102 6 206 l0 189 -70 0 -70 0 0 -135 0 -135 -30 0 -30 0 0
135 c0 178 -18 180 -22 3 l-3 -133 -32 -3 -33 -3 0 160 0 161 145 0 145 0 0
85 0 85 -145 0 -145 0 0 25 c0 24 -2 25 -63 25 -35 0 -67 -3 -70 -7z"/>
<path d="M5110 5025 l0 -355 70 0 70 0 0 355 0 355 -70 0 -70 0 0 -355z"/>
<path d="M6041 5370 c-67 -16 -66 -9 -69 -339 l-3 -299 25 -28 24 -29 147 -3
c223 -5 235 2 235 128 0 77 -1 80 -24 80 -13 0 -44 3 -70 6 -45 7 -46 6 -46
-20 0 -22 -4 -26 -30 -26 -25 0 -30 4 -30 25 0 14 -4 25 -10 25 -5 0 -10 -11
-10 -25 0 -21 -5 -25 -29 -25 -26 0 -30 4 -36 40 -4 21 -4 44 0 50 4 6 60 10
146 10 l139 0 -2 196 -3 197 -28 21 c-25 19 -44 21 -160 23 -73 1 -147 -2
-166 -7z m137 -217 l3 -53 -30 0 c-31 0 -31 0 -31 56 0 54 0 55 28 52 25 -3
27 -7 30 -55z m82 -3 c0 -49 -1 -50 -30 -50 -29 0 -30 1 -30 50 0 49 1 50 30
50 29 0 30 -1 30 -50z"/>
<path d="M6830 5355 c0 -21 -5 -25 -30 -25 l-30 0 0 -85 0 -85 30 0 30 0 0
-214 c0 -213 0 -215 24 -243 l24 -28 159 -3 c144 -2 161 -1 191 18 l32 20 0
200 0 200 -70 0 -70 0 0 -136 0 -135 -27 3 -28 3 -3 133 c-4 177 -22 175 -22
-4 l0 -135 -32 3 -33 3 -3 115 c-2 63 0 134 3 158 l6 42 140 0 139 0 0 85 0
85 -139 0 c-137 0 -140 0 -143 23 -3 20 -9 22 -75 25 -72 3 -73 3 -73 -23z"/>
<path d="M7410 5025 l0 -355 70 0 69 0 3 143 3 142 28 3 27 3 0 -145 c0 -123
2 -146 15 -146 13 0 15 22 15 140 l0 140 30 0 30 0 0 -225 0 -226 25 -24 24
-25 336 0 336 0 -3 83 -3 82 -287 3 -288 2 0 184 0 185 -26 20 c-15 12 -22 21
-16 21 6 0 18 7 26 16 23 22 23 259 1 291 -24 34 -76 43 -252 43 l-163 0 0
-355z m200 125 l0 -60 -30 0 c-30 0 -30 1 -30 53 0 60 4 67 37 67 22 0 23 -4
23 -60z m88 -2 c-3 -49 -5 -53 -30 -56 -28 -3 -28 -2 -28 52 0 56 0 56 31 56
l30 0 -3 -52z"/>
<path d="M8050 5370 c-18 -4 -40 -16 -47 -25 -15 -22 -26 -88 -21 -140 l3 -40
73 -3 c71 -3 72 -3 72 23 0 21 5 25 30 25 25 0 30 -4 30 -25 0 -14 5 -25 10
-25 6 0 10 9 10 20 0 16 7 20 30 20 29 0 30 -2 30 -44 l0 -44 -120 -4 c-170
-4 -165 2 -165 -218 0 -229 -17 -214 240 -218 l194 -3 0 302 c1 167 -2 318 -5
336 -11 58 -39 68 -194 70 -74 1 -151 -2 -170 -7z m140 -470 l0 -60 -30 0 -30
0 0 60 0 60 30 0 30 0 0 -60z m80 -1 c0 -60 0 -60 -27 -57 -25 3 -28 7 -31 47
-4 57 2 71 33 71 24 0 25 -2 25 -61z"/>
<path d="M8633 5373 c-19 -2 -41 -15 -53 -30 -18 -23 -20 -40 -20 -188 0 -216
-6 -208 162 -215 l123 -5 0 -45 c0 -42 -2 -45 -27 -48 -22 -3 -28 1 -28 17 0
28 -18 36 -22 9 -2 -18 -11 -24 -35 -26 -28 -3 -33 0 -33 17 0 15 -6 21 -24
21 -13 0 -44 3 -70 6 l-46 7 0 -81 c0 -44 3 -88 6 -97 14 -36 57 -45 209 -45
152 0 195 9 209 45 10 27 7 335 -4 355 -15 28 -71 40 -183 40 l-98 0 3 48 c3
43 5 47 30 50 22 3 29 -2 34 -22 7 -31 24 -35 24 -6 0 16 7 20 30 20 23 0 30
-4 30 -20 0 -18 7 -20 70 -20 l71 0 -3 86 c-3 82 -5 88 -31 108 -25 19 -43 21
-160 22 -73 1 -147 0 -164 -3z"/>
<path d="M5320 5331 c-6 -12 -10 -129 -10 -308 0 -239 3 -293 15 -309 13 -17
14 18 15 309 0 180 -2 327 -5 327 -2 0 -9 -9 -15 -19z"/>
<path d="M3841 5143 c-1 -129 3 -203 9 -203 12 0 12 356 0 385 -5 12 -9 -60
-9 -182z"/>
<path d="M5897 5333 c-11 -10 -8 -606 3 -623 6 -10 10 96 10 308 0 177 -1 322
-3 322 -2 0 -7 -3 -10 -7z"/>
<path d="M9061 5253 c-1 -56 3 -93 9 -93 12 0 12 137 0 165 -6 13 -9 -12 -9
-72z"/>
<path d="M3267 5323 c-12 -11 -8 -603 3 -603 6 0 10 108 10 305 0 168 -1 305
-3 305 -2 0 -7 -3 -10 -7z"/>
<path d="M4390 5245 c0 -78 2 -85 20 -85 18 0 20 7 20 85 0 78 -2 85 -20 85
-18 0 -20 -7 -20 -85z"/>
<path d="M5030 5245 c0 -50 4 -85 10 -85 6 0 10 35 10 85 0 50 -4 85 -10 85
-6 0 -10 -35 -10 -85z"/>
<path d="M7330 5245 c0 -50 4 -85 10 -85 6 0 10 35 10 85 0 50 -4 85 -10 85
-6 0 -10 -35 -10 -85z"/>
<path d="M7905 5300 c-9 -47 -2 -135 10 -135 13 0 18 114 7 145 -9 24 -10 24
-17 -10z"/>
<path d="M8480 5163 c0 -93 5 -175 10 -183 6 -10 10 46 10 168 0 115 -4 182
-10 182 -6 0 -10 -62 -10 -167z"/>
<path d="M2680 4996 c0 -211 4 -326 10 -326 6 0 10 113 10 319 0 203 -4 322
-10 326 -7 4 -10 -105 -10 -319z"/>
<path d="M5031 4908 c0 -123 4 -195 9 -183 12 29 12 385 0 385 -6 0 -10 -74
-9 -202z"/>
<path d="M7330 4908 c0 -135 4 -198 10 -188 13 20 13 390 0 390 -6 0 -10 -74
-10 -202z"/>
<path d="M9061 4890 c0 -112 4 -177 9 -165 5 11 9 85 9 165 0 80 -4 154 -9
165 -5 12 -9 -53 -9 -165z"/>
<path d="M7902 4860 c2 -94 7 -143 16 -152 9 -10 12 15 12 124 0 138 -4 168
-22 168 -6 0 -9 -52 -6 -140z"/>
<path d="M3840 4798 c0 -64 3 -88 10 -78 13 20 13 170 0 170 -6 0 -10 -37 -10
-92z"/>
<path d="M8480 4808 c0 -46 5 -90 10 -98 7 -10 10 16 10 83 0 58 -4 97 -10 97
-6 0 -10 -34 -10 -82z"/>
</g>
</svg>
